<svg width="251" height="250" viewBox="0 0 251 250" fill="none" xmlns="http://www.w3.org/2000/svg">
<path d="M107.429 24.4633L105.72 43.0755C105.664 43.6903 105.734 44.3101 105.925 44.8962C106.117 45.4823 106.426 46.0223 106.834 46.4823C107.242 46.9424 107.74 47.3128 108.296 47.5703C108.852 47.8279 109.455 47.9671 110.067 47.9794C121.385 48.3261 132.729 47.224 144.097 44.673C150.635 43.2118 153.161 39.1005 151.675 32.3391C151.378 30.9274 150.548 29.9739 149.186 29.4785C147.898 28.9832 146.71 28.2897 145.62 27.3981C144.481 26.457 144.097 25.2682 144.468 23.8317C146.053 17.6152 146.747 11.2873 146.549 4.84793C146.511 3.57263 145.985 2.3605 145.079 1.46179C144.174 0.563085 142.957 0.046396 141.682 0.0183913C129.224 -0.229277 117.064 2.0245 105.2 6.77973C99.7764 8.93445 97.8817 12.7733 99.5163 18.2963C99.6637 18.7838 99.9351 19.2268 100.305 19.5841C100.676 19.9414 101.133 20.2013 101.634 20.3396L105.163 21.2312C106.823 21.677 107.578 22.7544 107.429 24.4633Z" fill="#129EAF"/>
<path d="M9.72412 77.3652L7.38366 92.9683C7.29478 93.5699 7.32989 94.1832 7.48682 94.77C7.64374 95.3568 7.91908 95.9044 8.29565 96.3786C8.67222 96.8528 9.14191 97.2434 9.67535 97.5259C10.2088 97.8085 10.7945 97.977 11.3959 98.0208C19.6432 98.6152 54.4159 99.0238 54.453 85.5755C54.453 84.238 53.9577 83.0988 52.967 82.1576L48.3233 77.6624C47.3326 76.6965 46.8992 75.5325 47.023 74.1703L48.6204 55.6323C48.6713 55.0266 48.5999 54.4169 48.4103 53.8401C48.2208 53.2633 47.9172 52.7313 47.5178 52.2764C47.1185 51.8215 46.6317 51.453 46.0869 51.1934C45.5421 50.9337 44.9506 50.7882 44.3482 50.7656C31.6056 50.2084 12.919 52.4746 2.29406 60.8705C-0.752258 63.2977 -0.764635 65.7248 2.25692 68.152L7.90376 72.7215C9.38977 73.9103 9.99655 75.4582 9.72412 77.3652Z" fill="#F9AB00"/>
<path d="M205.989 75.0991L203.946 90.7765C203.302 95.9032 205.568 98.479 210.744 98.5038C220.973 98.5285 232.143 97.1663 244.254 94.4172C250.569 93.0055 251.387 85.947 248.86 80.9688C248.34 79.9286 247.498 79.3218 246.334 79.1485C243.065 78.6531 241.876 76.7956 242.768 73.5759C244.625 66.9136 245.207 60.5238 244.514 54.4064C244.408 53.423 243.951 52.5105 243.229 51.8353C242.506 51.1602 241.564 50.7673 240.576 50.7285C234.037 50.4685 188.417 52.6232 198.819 69.7123C199.413 70.6782 200.268 71.2478 201.382 71.4212L203.351 71.6813C204.149 71.7823 204.873 72.1983 205.367 72.8385C205.861 73.4787 206.085 74.2912 205.989 75.0991Z" fill="#4285F4"/>
<path d="M144.84 125.363L146.957 107.568C147.045 106.795 146.97 106.012 146.734 105.269C146.499 104.526 146.11 103.84 145.592 103.256C145.074 102.671 144.439 102.201 143.727 101.875C143.015 101.55 142.242 101.375 141.459 101.364C132.506 101.29 95.5412 103.705 99.4049 118.416C99.5614 119.034 99.891 119.592 100.353 120.021C100.815 120.45 101.389 120.731 102.005 120.831C103.59 121.103 104.928 121.797 106.018 122.911C106.959 123.877 107.38 125.029 107.281 126.366L106.129 144.904C106.093 145.474 106.175 146.044 106.371 146.58C106.567 147.116 106.872 147.605 107.266 148.017C107.661 148.429 108.136 148.755 108.663 148.974C109.19 149.193 109.757 149.3 110.327 149.288C121.2 149.115 132.27 147.951 143.539 145.796C154.201 143.753 154.462 133.797 146.251 128.335C145.76 128.009 145.367 127.559 145.118 127.034C144.869 126.509 144.772 125.931 144.84 125.363Z" fill="#5BB974"/>
<path d="M49.8836 180.606C48.9454 180.121 48.1705 179.372 47.6553 178.454C47.1401 177.536 46.9073 176.489 46.9858 175.442L48.4347 157.647C48.8062 153.189 46.7629 151.047 42.3049 151.22C33.2774 151.517 4.96887 154.415 0.845195 165.003C0.250791 166.538 0.585145 167.839 1.84825 168.904L8.6096 174.439C9.08681 174.835 9.45378 175.347 9.67506 175.926C9.89633 176.506 9.96441 177.132 9.87271 177.745L7.4951 194.091C7.41227 194.65 7.44617 195.22 7.59468 195.766C7.7432 196.311 8.00317 196.821 8.35846 197.264C8.71376 197.706 9.1568 198.071 9.66012 198.337C10.1634 198.603 10.7163 198.764 11.2844 198.809C24.7081 199.8 37.3268 198.488 49.1405 194.872C50.2156 194.553 51.1973 193.973 52.0002 193.183C52.8031 192.393 53.4028 191.417 53.7472 190.339C55.1341 185.881 53.8462 182.637 49.8836 180.606Z" fill="#AF5CF7"/>
<path d="M242.991 176.259C243.511 171.133 244.08 165.882 244.7 160.508C245.418 154.093 242.743 151.022 236.675 151.294C225.233 151.814 214.125 154.217 203.351 158.501C197.927 160.656 196.355 164.346 198.633 169.572C198.879 170.146 199.236 170.663 199.684 171.091C200.131 171.519 200.658 171.849 201.234 172.061C204.899 173.399 206.36 176.061 205.617 180.049C204.726 184.829 204.206 189.658 204.057 194.537C204.037 195.131 204.135 195.722 204.345 196.277C204.555 196.833 204.873 197.341 205.281 197.773C205.689 198.205 206.178 198.551 206.72 198.793C207.262 199.035 207.847 199.167 208.441 199.181C221.468 199.528 233.369 198.265 244.142 195.392C245.884 194.922 247.42 193.89 248.509 192.458C249.599 191.026 250.18 189.274 250.161 187.479C250.136 183.739 248.402 181.114 244.96 179.603C244.321 179.324 243.787 178.851 243.433 178.25C243.079 177.65 242.925 176.953 242.991 176.259Z" fill="#FA7B17"/>
<path d="M145.248 225.929L146.734 206.351C146.775 205.851 146.714 205.348 146.554 204.872C146.395 204.397 146.141 203.958 145.808 203.583C145.475 203.208 145.069 202.905 144.615 202.691C144.162 202.477 143.669 202.357 143.168 202.339C134.921 202.004 95.987 204.048 99.5163 218.685C99.8383 220.047 100.631 221.001 101.894 221.545C103.95 222.437 105.559 223.75 106.723 225.483C107.417 226.548 107.652 227.712 107.429 228.976C106.315 235.242 105.968 241.297 106.389 247.142C106.513 248.801 107.392 249.681 109.027 249.78C121.757 250.547 133.917 249.309 145.508 246.065C150.982 244.504 152.976 240.901 151.49 235.254C151.129 233.934 150.312 232.789 149.186 232.022C148.022 231.229 147.019 230.288 146.177 229.198C145.459 228.232 145.149 227.143 145.248 225.929Z" fill="#FF8BCB"/>
<path d="M105.163 21.2312L101.634 20.3396C101.133 20.2013 100.676 19.9414 100.305 19.5841C99.9351 19.2268 99.6637 18.7838 99.5163 18.2963C97.8817 12.7733 99.7764 8.93445 105.2 6.77973C117.064 2.0245 129.224 -0.229277 141.682 0.0183913C142.957 0.046396 144.174 0.563085 145.079 1.46179C145.985 2.3605 146.511 3.57263 146.549 4.84793C146.747 11.2873 146.053 17.6152 144.468 23.8317C144.097 25.2682 144.481 26.457 145.62 27.3981C146.71 28.2897 147.898 28.9832 149.186 29.4785C150.548 29.9739 151.378 30.9274 151.675 32.3391C153.161 39.1005 150.635 43.2118 144.097 44.673C132.729 47.224 121.385 48.3261 110.067 47.9794C109.455 47.9671 108.852 47.8279 108.296 47.5703C107.74 47.3128 107.242 46.9424 106.834 46.4823C106.426 46.0223 106.117 45.4823 105.925 44.8962C105.734 44.3101 105.664 43.6903 105.72 43.0755L107.429 24.4633C107.578 22.7544 106.823 21.677 105.163 21.2312Z" fill="#129EAF"/>
<path d="M7.90376 72.7215L2.25692 68.152C-0.764635 65.7248 -0.752258 63.2977 2.29406 60.8705C12.919 52.4746 31.6056 50.2084 44.3482 50.7656C44.9506 50.7882 45.5421 50.9337 46.0869 51.1934C46.6317 51.453 47.1185 51.8215 47.5178 52.2764C47.9172 52.7313 48.2208 53.2633 48.4103 53.8401C48.5999 54.4169 48.6713 55.0266 48.6204 55.6323L47.023 74.1703C46.8992 75.5325 47.3326 76.6965 48.3233 77.6624L52.967 82.1576C53.9577 83.0988 54.453 84.238 54.453 85.5755C54.4159 99.0238 19.6432 98.6152 11.3959 98.0208C10.7945 97.977 10.2088 97.8085 9.67535 97.5259C9.14191 97.2434 8.67222 96.8528 8.29565 96.3786C7.91908 95.9044 7.64374 95.3568 7.48682 94.77C7.32989 94.1832 7.29478 93.5699 7.38366 92.9683L9.72412 77.3652C9.99655 75.4582 9.38977 73.9103 7.90376 72.7215Z" fill="#F9AB00"/>
<path d="M203.351 71.6813L201.382 71.4212C200.268 71.2478 199.413 70.6782 198.819 69.7123C188.417 52.6232 234.037 50.4685 240.576 50.7285C241.564 50.7673 242.506 51.1602 243.229 51.8353C243.951 52.5105 244.408 53.423 244.514 54.4064C245.207 60.5238 244.625 66.9136 242.768 73.5759C241.876 76.7956 243.065 78.6531 246.334 79.1485C247.498 79.3218 248.34 79.9286 248.86 80.9688C251.387 85.947 250.569 93.0055 244.254 94.4172C232.143 97.1663 220.973 98.5285 210.744 98.5038C205.568 98.479 203.302 95.9032 203.946 90.7765L205.989 75.0991C206.085 74.2912 205.861 73.4787 205.367 72.8385C204.873 72.1983 204.149 71.7823 203.351 71.6813Z" fill="#4285F4"/>
<path d="M146.251 128.335C154.462 133.797 154.201 143.753 143.539 145.796C132.27 147.951 121.2 149.115 110.327 149.288C109.757 149.3 109.19 149.193 108.663 148.974C108.136 148.755 107.661 148.429 107.266 148.017C106.872 147.605 106.567 147.116 106.371 146.58C106.175 146.044 106.093 145.474 106.129 144.904L107.281 126.366C107.38 125.029 106.959 123.877 106.018 122.911C104.928 121.797 103.59 121.103 102.005 120.831C101.389 120.731 100.815 120.45 100.353 120.021C99.891 119.592 99.5614 119.034 99.4049 118.416C95.5412 103.705 132.506 101.29 141.459 101.364C142.242 101.375 143.015 101.55 143.727 101.875C144.439 102.201 145.074 102.671 145.592 103.256C146.11 103.84 146.499 104.526 146.734 105.269C146.97 106.012 147.045 106.795 146.957 107.568L144.84 125.363C144.772 125.931 144.869 126.509 145.118 127.034C145.367 127.559 145.76 128.009 146.251 128.335Z" fill="#5BB974"/>
<path d="M49.8836 180.606C53.8462 182.637 55.1341 185.881 53.7472 190.339C53.4028 191.417 52.8031 192.393 52.0002 193.183C51.1973 193.973 50.2156 194.553 49.1405 194.872C37.3268 198.488 24.7081 199.8 11.2844 198.809C10.7163 198.764 10.1634 198.603 9.66012 198.337C9.1568 198.071 8.71376 197.706 8.35846 197.264C8.00317 196.821 7.7432 196.311 7.59468 195.766C7.44617 195.22 7.41227 194.65 7.4951 194.091L9.87271 177.745C9.96441 177.132 9.89633 176.506 9.67506 175.926C9.45378 175.347 9.08681 174.835 8.6096 174.439L1.84825 168.904C0.585145 167.839 0.250791 166.538 0.845195 165.003C4.96887 154.415 33.2774 151.517 42.3049 151.22C46.7629 151.047 48.8062 153.189 48.4347 157.647L46.9858 175.442C46.9073 176.489 47.1401 177.536 47.6553 178.454C48.1705 179.372 48.9454 180.121 49.8836 180.606Z" fill="#AF5CF7"/>
<path d="M244.96 179.603C248.402 181.114 250.136 183.739 250.161 187.479C250.18 189.274 249.599 191.026 248.509 192.458C247.42 193.89 245.884 194.922 244.142 195.392C233.369 198.265 221.468 199.528 208.441 199.181C207.847 199.167 207.262 199.035 206.72 198.793C206.178 198.551 205.689 198.205 205.281 197.773C204.873 197.341 204.555 196.833 204.345 196.277C204.135 195.722 204.037 195.131 204.057 194.537C204.206 189.658 204.726 184.829 205.617 180.049C206.36 176.061 204.899 173.399 201.234 172.061C200.658 171.849 200.131 171.519 199.684 171.091C199.236 170.663 198.879 170.146 198.633 169.572C196.355 164.346 197.927 160.656 203.351 158.501C214.125 154.217 225.233 151.814 236.675 151.294C242.743 151.022 245.418 154.093 244.7 160.508C244.08 165.882 243.511 171.133 242.991 176.259C242.925 176.953 243.079 177.65 243.433 178.25C243.787 178.851 244.321 179.324 244.96 179.603Z" fill="#FA7B17"/>
<path d="M146.177 229.198C147.019 230.288 148.022 231.229 149.186 232.022C150.312 232.789 151.129 233.934 151.49 235.254C152.976 240.901 150.982 244.504 145.508 246.065C133.917 249.309 121.757 250.547 109.027 249.78C107.392 249.681 106.513 248.801 106.389 247.142C105.968 241.297 106.315 235.242 107.429 228.976C107.652 227.712 107.417 226.548 106.723 225.483C105.559 223.75 103.95 222.437 101.894 221.545C100.631 221.001 99.8383 220.047 99.5163 218.685C95.987 204.048 134.921 202.004 143.168 202.339C143.669 202.357 144.162 202.477 144.615 202.691C145.069 202.905 145.475 203.208 145.808 203.583C146.141 203.958 146.395 204.397 146.554 204.872C146.714 205.348 146.775 205.851 146.734 206.351L145.248 225.929C145.149 227.143 145.459 228.232 146.177 229.198Z" fill="#FF8BCB"/>
</svg>
